#!OML:ASF I:\Actors\actors\Patient Classification 1\Patient 1\Session 1\Subject1.ASF
:FULLY-SPECIFIED
:DEGREES
751
root 0.0720138 17.5977 8.67104 12.4827 -3.73614 -7.29928
lowerback 4.31628 -0.330549 7.68255
upperback -0.199888 0.00862011 2.13181
thorax -2.6345 -0.0873767 -2.09977
lowerneck 2.22733 -0.272725 2.61334
upperneck -3.99167 -0.0942982 4.16085
head -1.61507 -0.171432 0.859594
rclavicle 5.11871e-015 -2.28851e-014
rhumerus 6.12605 56.8005 -34.9674
rradius 139.965
rwrist -39.342
rhand 69.0673 -44.0587
rfingers 7.12502
rthumb 73.9812 21.032
lclavicle 5.11871e-015 -2.28851e-014
lhumerus -17.9463 -65.0642 63.7041
lradius 141.448
lwrist 28.7641
lhand -3.92263 -37.1744
lfingers 7.12502
lthumb 21.8283 -8.38549
rfemur -10.9419 21.7728 21.6163
rtibia 9.61937
rfoot -13.0787 -21.6429
rtoes -3.05288
lfemur -2.94226 -30.2962 -8.53583
ltibia -0.511153
lfoot -14.8453 42.7549
ltoes 0.51562
752
root 0.0714187 17.5978 8.68559 12.334 -3.6156 -7.41746
lowerback 4.25097 -0.391283 7.69803
upperback -0.347533 -0.0676232 2.1711
thorax -2.75858 -0.132629 -2.0621
lowerneck 2.13732 -0.1966 2.65776
upperneck -3.3832 -0.0276345 3.99315
head -1.40454 -0.119938 0.793954
rclavicle 7.52276e-015 -5.21934e-014
rhumerus 6.54387 57.1901 -34.605
rradius 139.848
rwrist -39.7566
rhand 68.5458 -43.6605
rfingers 7.12502
rthumb 74.153 19.7052
lclavicle 7.52276e-015 -5.21934e-014
lhumerus -18.8826 -64.8517 64.3927
lradius 141.435
lwrist 28.8628
lhand -4.30489 -37.1005
lfingers 7.12502
lthumb 21.4612 -8.26927
rfemur -10.6204 21.7095 21.8743
rtibia 9.50526
rfoot -13.0745 -21.6648
rtoes -3.05157
lfemur -2.72076 -30.2658 -8.50259
ltibia -0.510134
lfoot -14.8568 42.6073
ltoes 0.530445
753
root 0.0704376 17.5958 8.6969 12.162 -3.50998 -7.51109
lowerback 4.24328 -0.419095 7.71309
upperback -0.475139 -0.0967616 2.16111
thorax -2.89 -0.154587 -2.07815
lowerneck 1.80158 -0.11618 2.82541
upperneck -2.57081 0.0297812 3.7955
head -1.08906 -0.0669855 0.698234
rclavicle -1.49267e-014 4.41053e-016
rhumerus 6.39649 57.2785 -34.9638
rradius 139.756
rwrist -39.9363
rhand 68.4053 -43.5337
rfingers 7.12502
rthumb 74.1967 19.3609
lclavicle -1.49267e-014 4.41053e-016
lhumerus -19.7448 -64.6237 65.1173
lradius 141.401
lwrist 28.7686
lhand -4.46784 -37.1687
lfingers 7.12502
lthumb 21.3046 -8.31972
rfemur -10.2865 21.6337 22.1047
rtibia 9.39336
rfoot -13.1326 -21.6591
rtoes -3.08479
lfemur -2.50711 -30.2463 -8.51931
ltibia -0.459813
lfoot -14.7164 42.5475
ltoes 0.0512932
754
root 0.0680335 17.5931 8.7047 11.9989 -3.48186 -7.53951
lowerback 4.26763 -0.39501 7.67055
upperback -0.603645 -0.058256 2.09331
thorax -3.03396 -0.142916 -2.1266
lowerneck 1.03227 -0.0622824 3.05428
upperneck -1.23659 0.0122384 3.5669
head -0.544194 -0.0351462 0.584006
rclavicle 1.3008e-014 -4.92986e-014
rhumerus 5.88133 57.0952 -35.9077
rradius 139.668
rwrist -39.9366
rhand 68.6149 -43.4502
rfingers 7.12502
rthumb 74.1311 20.1463
lclavicle 1.3008e-014 -4.92986e-014
lhumerus -20.5973 -64.4162 65.9375
lradius 141.369
lwrist 28.5831
lhand -4.35272 -37.3514
lfingers 7.12502
lthumb 21.4152 -8.51492
rfemur -10.0187 21.5934 22.2343
rtibia 9.34691
rfoot -13.2518 -21.6109
rtoes -3.03756
lfemur -2.29756 -30.2349 -8.62376
ltibia -0.405193
lfoot -14.5033 42.5532
ltoes -0.608382
755
root 0.0633051 17.5895 8.71123 11.9103 -3.49387 -7.59226
lowerback 4.18309 -0.352038 7.58361
upperback -0.730644 -0.00736553 2.05671
thorax -3.11353 -0.121923 -2.1193
lowerneck 0.0294902 -0.0302266 3.34236
upperneck 0.472736 -0.0594872 3.23524
head 0.137538 -0.020102 0.434083
rclavicle 9.56651e-016 1.41137e-014
rhumerus 5.31294 56.8036 -37.0994
rradius 139.554
rwrist -39.8879
rhand 69.1183 -43.5015
rfingers 7.12502
rthumb 73.9637 21.7558
lclavicle 9.56651e-016 1.41137e-014
lhumerus -21.4932 -64.1767 66.8904
lradius 141.336
lwrist 28.4655
lhand -4.23531 -37.4028
lfingers 7.12502
lthumb 21.528 -8.57921
rfemur -9.86449 21.5851 22.3556
rtibia 9.3329
rfoot -13.3397 -21.5379
rtoes -2.95433
lfemur -2.12739 -30.2012 -8.64415
ltibia -0.42725
lfoot -14.53 42.5469
ltoes -0.65625
